<?xml version="1.0" encoding="UTF-8"?>
<svg id="Layer_1" xmlns="http://www.w3.org/2000/svg" viewBox="0 0 500 504.632638548216164">
  <defs>
    <style>
      .cls-1 {
        fill: #6bb6ff;
      }

      .cls-2 {
        fill: #78bdff;
      }

      .cls-2, .cls-3, .cls-4, .cls-5 {
        stroke: #000;
        stroke-miterlimit: 10;
      }

      .cls-2, .cls-4 {
        stroke-width: 21px;
      }

      .cls-3 {
        stroke-width: 7px;
      }

      .cls-3, .cls-4, .cls-5 {
        fill: none;
      }

      .cls-5 {
        stroke-width: 16px;
      }
    </style>
  </defs>
  <rect class="cls-1" y="4.632638480871719" width="500" height="500.000000067344445" rx="95.325582651941659" ry="95.325582651941659"/>
  <rect class="cls-2" x="89.177212507028344" y="149.577500762506133" width="342.870981163766373" height="251.603415639456216"/>
  <line class="cls-4" x1="92.351605863915211" y1="250.832533885702105" x2="435.222587027679765" y2="149.577500762506133"/>
  <polygon class="cls-1" points="429.542952218042046 137.289920893696944 52.942221710995909 259.315282290482173 14.426115536145517 122.025361396787048 391.026846043190744 0 429.542952218042046 137.289920893696944"/>
  <line class="cls-5" x1="146.961566167907222" y1="239.556669593007427" x2="157.271575712592494" y2="91.83263135359266"/>
  <line class="cls-5" x1="211.03471588384491" y1="209.294353726613735" x2="189.757790636595018" y2="85.252765605617242"/>
  <line class="cls-5" x1="200.528368206561936" y1="89.761043368088394" x2="148.410113530055241" y2="89.761043368088394"/>
  <line class="cls-5" x1="281.498992609345805" y1="194.855273469190251" x2="290.801408563080258" y2="61.568258872429396"/>
  <line class="cls-5" x1="344.564548734335403" y1="179.029981245451381" x2="323.287623487085511" y2="54.988393124455797"/>
  <line class="cls-5" x1="334.05820105705061" y1="60.49667088692604" x2="281.939946380545734" y2="60.49667088692604"/>
  <line class="cls-5" x1="199.528368206561936" y1="147.273559666115034" x2="147.410113530055241" y2="147.273559666115034"/>
  <line class="cls-5" x1="340.675558146014737" y1="117.009187184953589" x2="288.557303469508042" y2="117.009187184953589"/>
  <rect class="cls-3" x="260.612703088911076" y="244.465478333017927" width="28.944600380596967" height="46.82678757368376"/>
  <rect class="cls-3" x="319.453785920411974" y="244.465478333017927" width="28.944600380598786" height="46.82678757368376"/>
  <rect class="cls-3" x="372.907824349413204" y="244.465478333017927" width="28.944600380598786" height="46.82678757368376"/>
  <rect class="cls-3" x="262.162392378761069" y="322.229722077360748" width="28.944600380596967" height="46.826787573681941"/>
  <rect class="cls-3" x="321.003475210261968" y="322.229722077360748" width="28.944600380598786" height="46.826787573681941"/>
  <rect class="cls-3" x="374.457513639263198" y="322.229722077360748" width="28.944600380598786" height="46.826787573681941"/>
  <rect class="cls-3" x="147.410113530055241" y="299.419173150069582" width="72.906787307310879" height="92.447885428264271"/>
</svg>